<mxfile host="Electron" agent="Mozilla/5.0 (Windows NT 10.0; Win64; x64) AppleWebKit/537.36 (KHTML, like Gecko) draw.io/28.1.2 Chrome/138.0.7204.243 Electron/37.4.0 Safari/537.36" version="28.1.2">
  <diagram name="Page-1" id="c0mtsNw2diYANQxIEjlJ">
    <mxGraphModel dx="2548" dy="1598" grid="1" gridSize="10" guides="1" tooltips="1" connect="1" arrows="1" fold="1" page="1" pageScale="1" pageWidth="850" pageHeight="1100" math="0" shadow="0">
      <root>
        <mxCell id="0" />
        <mxCell id="1" parent="0" />
        <mxCell id="xwLJoUd6dYJSsGpiWZFa-3" style="edgeStyle=orthogonalEdgeStyle;rounded=0;orthogonalLoop=1;jettySize=auto;html=1;exitX=0.5;exitY=1;exitDx=0;exitDy=0;" parent="1" source="xwLJoUd6dYJSsGpiWZFa-1" target="xwLJoUd6dYJSsGpiWZFa-2" edge="1">
          <mxGeometry relative="1" as="geometry" />
        </mxCell>
        <mxCell id="xwLJoUd6dYJSsGpiWZFa-1" value="Start" style="ellipse;whiteSpace=wrap;html=1;" parent="1" vertex="1">
          <mxGeometry x="35" width="120" height="80" as="geometry" />
        </mxCell>
        <mxCell id="xwLJoUd6dYJSsGpiWZFa-7" style="edgeStyle=orthogonalEdgeStyle;rounded=0;orthogonalLoop=1;jettySize=auto;html=1;exitX=0.5;exitY=1;exitDx=0;exitDy=0;" parent="1" source="xwLJoUd6dYJSsGpiWZFa-2" target="xwLJoUd6dYJSsGpiWZFa-6" edge="1">
          <mxGeometry relative="1" as="geometry" />
        </mxCell>
        <mxCell id="xwLJoUd6dYJSsGpiWZFa-2" value="Input Nama dan Password" style="shape=parallelogram;perimeter=parallelogramPerimeter;whiteSpace=wrap;html=1;fixedSize=1;" parent="1" vertex="1">
          <mxGeometry x="35" y="120" width="120" height="60" as="geometry" />
        </mxCell>
        <mxCell id="xwLJoUd6dYJSsGpiWZFa-5" value="" style="endArrow=classic;html=1;rounded=0;" parent="1" edge="1">
          <mxGeometry width="50" height="50" relative="1" as="geometry">
            <mxPoint x="10" y="130" as="sourcePoint" />
            <mxPoint x="90" y="130" as="targetPoint" />
          </mxGeometry>
        </mxCell>
        <mxCell id="xwLJoUd6dYJSsGpiWZFa-8" style="edgeStyle=orthogonalEdgeStyle;rounded=0;orthogonalLoop=1;jettySize=auto;html=1;exitX=0.5;exitY=1;exitDx=0;exitDy=0;" parent="1" source="xwLJoUd6dYJSsGpiWZFa-6" edge="1">
          <mxGeometry relative="1" as="geometry">
            <mxPoint x="95.39130434782624" y="340" as="targetPoint" />
          </mxGeometry>
        </mxCell>
        <mxCell id="xwLJoUd6dYJSsGpiWZFa-10" style="edgeStyle=orthogonalEdgeStyle;rounded=0;orthogonalLoop=1;jettySize=auto;html=1;exitX=1;exitY=0.5;exitDx=0;exitDy=0;" parent="1" source="xwLJoUd6dYJSsGpiWZFa-6" edge="1">
          <mxGeometry relative="1" as="geometry">
            <mxPoint x="210" y="260.43478260869574" as="targetPoint" />
          </mxGeometry>
        </mxCell>
        <mxCell id="xwLJoUd6dYJSsGpiWZFa-6" value="Percobaan Login &amp;gt; 0" style="rhombus;whiteSpace=wrap;html=1;" parent="1" vertex="1">
          <mxGeometry x="23" y="220" width="145" height="80" as="geometry" />
        </mxCell>
        <mxCell id="xwLJoUd6dYJSsGpiWZFa-9" value="True" style="text;html=1;align=center;verticalAlign=middle;resizable=0;points=[];autosize=1;strokeColor=none;fillColor=none;" parent="1" vertex="1">
          <mxGeometry x="95" y="300" width="50" height="30" as="geometry" />
        </mxCell>
        <mxCell id="xwLJoUd6dYJSsGpiWZFa-11" value="False" style="text;html=1;align=center;verticalAlign=middle;resizable=0;points=[];autosize=1;strokeColor=none;fillColor=none;" parent="1" vertex="1">
          <mxGeometry x="155" y="230" width="50" height="30" as="geometry" />
        </mxCell>
        <mxCell id="xwLJoUd6dYJSsGpiWZFa-16" style="edgeStyle=orthogonalEdgeStyle;rounded=0;orthogonalLoop=1;jettySize=auto;html=1;exitX=0.5;exitY=1;exitDx=0;exitDy=0;" parent="1" source="xwLJoUd6dYJSsGpiWZFa-12" target="xwLJoUd6dYJSsGpiWZFa-14" edge="1">
          <mxGeometry relative="1" as="geometry" />
        </mxCell>
        <mxCell id="xwLJoUd6dYJSsGpiWZFa-12" value="Login Berhasil" style="shape=parallelogram;perimeter=parallelogramPerimeter;whiteSpace=wrap;html=1;fixedSize=1;" parent="1" vertex="1">
          <mxGeometry x="35" y="340" width="120" height="60" as="geometry" />
        </mxCell>
        <mxCell id="xwLJoUd6dYJSsGpiWZFa-13" value="" style="endArrow=classic;html=1;rounded=0;" parent="1" edge="1">
          <mxGeometry width="50" height="50" relative="1" as="geometry">
            <mxPoint x="100" y="390" as="sourcePoint" />
            <mxPoint x="180" y="390" as="targetPoint" />
          </mxGeometry>
        </mxCell>
        <mxCell id="xwLJoUd6dYJSsGpiWZFa-19" style="edgeStyle=orthogonalEdgeStyle;rounded=0;orthogonalLoop=1;jettySize=auto;html=1;exitX=0.5;exitY=1;exitDx=0;exitDy=0;" parent="1" source="xwLJoUd6dYJSsGpiWZFa-14" target="xwLJoUd6dYJSsGpiWZFa-17" edge="1">
          <mxGeometry relative="1" as="geometry" />
        </mxCell>
        <mxCell id="xwLJoUd6dYJSsGpiWZFa-14" value="Daftar Tiket" style="shape=parallelogram;perimeter=parallelogramPerimeter;whiteSpace=wrap;html=1;fixedSize=1;" parent="1" vertex="1">
          <mxGeometry x="35" y="440" width="120" height="60" as="geometry" />
        </mxCell>
        <mxCell id="xwLJoUd6dYJSsGpiWZFa-15" value="" style="endArrow=classic;html=1;rounded=0;" parent="1" edge="1">
          <mxGeometry width="50" height="50" relative="1" as="geometry">
            <mxPoint x="95" y="490" as="sourcePoint" />
            <mxPoint x="175" y="490" as="targetPoint" />
          </mxGeometry>
        </mxCell>
        <mxCell id="xwLJoUd6dYJSsGpiWZFa-22" style="edgeStyle=orthogonalEdgeStyle;rounded=0;orthogonalLoop=1;jettySize=auto;html=1;exitX=1;exitY=0.5;exitDx=0;exitDy=0;" parent="1" source="xwLJoUd6dYJSsGpiWZFa-17" target="xwLJoUd6dYJSsGpiWZFa-20" edge="1">
          <mxGeometry relative="1" as="geometry" />
        </mxCell>
        <mxCell id="xwLJoUd6dYJSsGpiWZFa-29" style="edgeStyle=orthogonalEdgeStyle;rounded=0;orthogonalLoop=1;jettySize=auto;html=1;exitX=0.5;exitY=1;exitDx=0;exitDy=0;" parent="1" source="xwLJoUd6dYJSsGpiWZFa-17" target="xwLJoUd6dYJSsGpiWZFa-26" edge="1">
          <mxGeometry relative="1" as="geometry" />
        </mxCell>
        <mxCell id="xwLJoUd6dYJSsGpiWZFa-17" value="Tiket_Regular" style="rhombus;whiteSpace=wrap;html=1;" parent="1" vertex="1">
          <mxGeometry x="22" y="540" width="147" height="80" as="geometry" />
        </mxCell>
        <mxCell id="xwLJoUd6dYJSsGpiWZFa-30" style="edgeStyle=orthogonalEdgeStyle;rounded=0;orthogonalLoop=1;jettySize=auto;html=1;exitX=0.5;exitY=1;exitDx=0;exitDy=0;" parent="1" source="xwLJoUd6dYJSsGpiWZFa-20" target="xwLJoUd6dYJSsGpiWZFa-27" edge="1">
          <mxGeometry relative="1" as="geometry" />
        </mxCell>
        <mxCell id="G7GfUiHUozjWx32VzTv3-2" style="edgeStyle=orthogonalEdgeStyle;rounded=0;orthogonalLoop=1;jettySize=auto;html=1;exitX=1;exitY=0.5;exitDx=0;exitDy=0;" parent="1" source="xwLJoUd6dYJSsGpiWZFa-20" target="G7GfUiHUozjWx32VzTv3-1" edge="1">
          <mxGeometry relative="1" as="geometry" />
        </mxCell>
        <mxCell id="xwLJoUd6dYJSsGpiWZFa-20" value="Tiket_VIP" style="rhombus;whiteSpace=wrap;html=1;" parent="1" vertex="1">
          <mxGeometry x="425" y="540" width="147" height="80" as="geometry" />
        </mxCell>
        <mxCell id="xwLJoUd6dYJSsGpiWZFa-24" value="False" style="text;html=1;align=center;verticalAlign=middle;resizable=0;points=[];autosize=1;strokeColor=none;fillColor=none;" parent="1" vertex="1">
          <mxGeometry x="255" y="550" width="50" height="30" as="geometry" />
        </mxCell>
        <mxCell id="xwLJoUd6dYJSsGpiWZFa-25" value="False" style="text;html=1;align=center;verticalAlign=middle;resizable=0;points=[];autosize=1;strokeColor=none;fillColor=none;" parent="1" vertex="1">
          <mxGeometry x="580" y="550" width="50" height="30" as="geometry" />
        </mxCell>
        <mxCell id="xwLJoUd6dYJSsGpiWZFa-35" style="edgeStyle=orthogonalEdgeStyle;rounded=0;orthogonalLoop=1;jettySize=auto;html=1;exitX=0.5;exitY=1;exitDx=0;exitDy=0;" parent="1" source="xwLJoUd6dYJSsGpiWZFa-26" target="xwLJoUd6dYJSsGpiWZFa-34" edge="1">
          <mxGeometry relative="1" as="geometry" />
        </mxCell>
        <mxCell id="xwLJoUd6dYJSsGpiWZFa-26" value="Jumlah_Tiket * Harga_Reguler" style="rounded=0;whiteSpace=wrap;html=1;" parent="1" vertex="1">
          <mxGeometry x="35.5" y="660" width="120" height="60" as="geometry" />
        </mxCell>
        <mxCell id="xwLJoUd6dYJSsGpiWZFa-66" style="edgeStyle=orthogonalEdgeStyle;rounded=0;orthogonalLoop=1;jettySize=auto;html=1;exitX=0.5;exitY=1;exitDx=0;exitDy=0;" parent="1" source="xwLJoUd6dYJSsGpiWZFa-27" target="xwLJoUd6dYJSsGpiWZFa-57" edge="1">
          <mxGeometry relative="1" as="geometry" />
        </mxCell>
        <mxCell id="xwLJoUd6dYJSsGpiWZFa-27" value="Jumlah_Tiket * Harga_VIP" style="rounded=0;whiteSpace=wrap;html=1;" parent="1" vertex="1">
          <mxGeometry x="438.5" y="660" width="120" height="60" as="geometry" />
        </mxCell>
        <mxCell id="xwLJoUd6dYJSsGpiWZFa-141" style="edgeStyle=orthogonalEdgeStyle;rounded=0;orthogonalLoop=1;jettySize=auto;html=1;exitX=1;exitY=0.5;exitDx=0;exitDy=0;" parent="1" source="xwLJoUd6dYJSsGpiWZFa-33" target="xwLJoUd6dYJSsGpiWZFa-140" edge="1">
          <mxGeometry relative="1" as="geometry">
            <Array as="points">
              <mxPoint x="390" y="800" />
              <mxPoint x="390" y="1310" />
            </Array>
          </mxGeometry>
        </mxCell>
        <mxCell id="xwLJoUd6dYJSsGpiWZFa-33" value="Dapat Diskon 12%" style="rounded=0;whiteSpace=wrap;html=1;" parent="1" vertex="1">
          <mxGeometry x="220" y="770" width="120" height="60" as="geometry" />
        </mxCell>
        <mxCell id="xwLJoUd6dYJSsGpiWZFa-36" style="edgeStyle=orthogonalEdgeStyle;rounded=0;orthogonalLoop=1;jettySize=auto;html=1;exitX=1;exitY=0.5;exitDx=0;exitDy=0;" parent="1" source="xwLJoUd6dYJSsGpiWZFa-34" target="xwLJoUd6dYJSsGpiWZFa-33" edge="1">
          <mxGeometry relative="1" as="geometry" />
        </mxCell>
        <mxCell id="xwLJoUd6dYJSsGpiWZFa-34" value="&amp;gt; 300000" style="rhombus;whiteSpace=wrap;html=1;" parent="1" vertex="1">
          <mxGeometry x="21.5" y="760" width="147" height="80" as="geometry" />
        </mxCell>
        <mxCell id="xwLJoUd6dYJSsGpiWZFa-46" style="edgeStyle=orthogonalEdgeStyle;rounded=0;orthogonalLoop=1;jettySize=auto;html=1;exitX=0.5;exitY=1;exitDx=0;exitDy=0;" parent="1" target="xwLJoUd6dYJSsGpiWZFa-49" edge="1">
          <mxGeometry relative="1" as="geometry">
            <mxPoint x="96.5" y="840" as="sourcePoint" />
          </mxGeometry>
        </mxCell>
        <mxCell id="xwLJoUd6dYJSsGpiWZFa-142" style="edgeStyle=orthogonalEdgeStyle;rounded=0;orthogonalLoop=1;jettySize=auto;html=1;exitX=1;exitY=0.5;exitDx=0;exitDy=0;" parent="1" source="xwLJoUd6dYJSsGpiWZFa-47" target="xwLJoUd6dYJSsGpiWZFa-140" edge="1">
          <mxGeometry relative="1" as="geometry">
            <Array as="points">
              <mxPoint x="390" y="920" />
              <mxPoint x="390" y="1310" />
            </Array>
          </mxGeometry>
        </mxCell>
        <mxCell id="xwLJoUd6dYJSsGpiWZFa-47" value="Dapat Diskon 12%" style="rounded=0;whiteSpace=wrap;html=1;" parent="1" vertex="1">
          <mxGeometry x="221.5" y="890" width="120" height="60" as="geometry" />
        </mxCell>
        <mxCell id="xwLJoUd6dYJSsGpiWZFa-48" style="edgeStyle=orthogonalEdgeStyle;rounded=0;orthogonalLoop=1;jettySize=auto;html=1;exitX=1;exitY=0.5;exitDx=0;exitDy=0;" parent="1" source="xwLJoUd6dYJSsGpiWZFa-49" target="xwLJoUd6dYJSsGpiWZFa-47" edge="1">
          <mxGeometry relative="1" as="geometry" />
        </mxCell>
        <mxCell id="xwLJoUd6dYJSsGpiWZFa-49" value="&amp;gt; 200000 dan&lt;div&gt;&amp;nbsp;&amp;lt; 300000&lt;/div&gt;" style="rhombus;whiteSpace=wrap;html=1;" parent="1" vertex="1">
          <mxGeometry x="23" y="880" width="147" height="80" as="geometry" />
        </mxCell>
        <mxCell id="xwLJoUd6dYJSsGpiWZFa-50" style="edgeStyle=orthogonalEdgeStyle;rounded=0;orthogonalLoop=1;jettySize=auto;html=1;exitX=0.5;exitY=1;exitDx=0;exitDy=0;" parent="1" target="xwLJoUd6dYJSsGpiWZFa-53" edge="1">
          <mxGeometry relative="1" as="geometry">
            <mxPoint x="96.5" y="960" as="sourcePoint" />
          </mxGeometry>
        </mxCell>
        <mxCell id="xwLJoUd6dYJSsGpiWZFa-143" style="edgeStyle=orthogonalEdgeStyle;rounded=0;orthogonalLoop=1;jettySize=auto;html=1;exitX=1;exitY=0.5;exitDx=0;exitDy=0;" parent="1" source="xwLJoUd6dYJSsGpiWZFa-51" target="xwLJoUd6dYJSsGpiWZFa-140" edge="1">
          <mxGeometry relative="1" as="geometry">
            <Array as="points">
              <mxPoint x="390" y="1040" />
              <mxPoint x="390" y="1310" />
            </Array>
          </mxGeometry>
        </mxCell>
        <mxCell id="xwLJoUd6dYJSsGpiWZFa-51" value="Bonus Poster&lt;div&gt;Ekslusif&lt;/div&gt;" style="rounded=0;whiteSpace=wrap;html=1;" parent="1" vertex="1">
          <mxGeometry x="221.5" y="1010" width="120" height="60" as="geometry" />
        </mxCell>
        <mxCell id="xwLJoUd6dYJSsGpiWZFa-52" style="edgeStyle=orthogonalEdgeStyle;rounded=0;orthogonalLoop=1;jettySize=auto;html=1;exitX=1;exitY=0.5;exitDx=0;exitDy=0;" parent="1" source="xwLJoUd6dYJSsGpiWZFa-53" target="xwLJoUd6dYJSsGpiWZFa-51" edge="1">
          <mxGeometry relative="1" as="geometry" />
        </mxCell>
        <mxCell id="xwLJoUd6dYJSsGpiWZFa-118" style="edgeStyle=orthogonalEdgeStyle;rounded=0;orthogonalLoop=1;jettySize=auto;html=1;exitX=0.5;exitY=1;exitDx=0;exitDy=0;" parent="1" source="xwLJoUd6dYJSsGpiWZFa-53" target="xwLJoUd6dYJSsGpiWZFa-116" edge="1">
          <mxGeometry relative="1" as="geometry" />
        </mxCell>
        <mxCell id="xwLJoUd6dYJSsGpiWZFa-53" value="&amp;gt; 150000 dan&lt;div&gt;&amp;lt; 200000&lt;/div&gt;" style="rhombus;whiteSpace=wrap;html=1;" parent="1" vertex="1">
          <mxGeometry x="23" y="1000" width="147" height="80" as="geometry" />
        </mxCell>
        <mxCell id="xwLJoUd6dYJSsGpiWZFa-145" style="edgeStyle=orthogonalEdgeStyle;rounded=0;orthogonalLoop=1;jettySize=auto;html=1;exitX=1;exitY=0.5;exitDx=0;exitDy=0;" parent="1" source="xwLJoUd6dYJSsGpiWZFa-55" target="xwLJoUd6dYJSsGpiWZFa-140" edge="1">
          <mxGeometry relative="1" as="geometry">
            <Array as="points">
              <mxPoint x="790" y="800" />
              <mxPoint x="790" y="1310" />
            </Array>
          </mxGeometry>
        </mxCell>
        <mxCell id="xwLJoUd6dYJSsGpiWZFa-55" value="Dapat Diskon 12%" style="rounded=0;whiteSpace=wrap;html=1;" parent="1" vertex="1">
          <mxGeometry x="623.5" y="770" width="120" height="60" as="geometry" />
        </mxCell>
        <mxCell id="xwLJoUd6dYJSsGpiWZFa-56" style="edgeStyle=orthogonalEdgeStyle;rounded=0;orthogonalLoop=1;jettySize=auto;html=1;exitX=1;exitY=0.5;exitDx=0;exitDy=0;" parent="1" source="xwLJoUd6dYJSsGpiWZFa-57" target="xwLJoUd6dYJSsGpiWZFa-55" edge="1">
          <mxGeometry relative="1" as="geometry" />
        </mxCell>
        <mxCell id="xwLJoUd6dYJSsGpiWZFa-57" value="&amp;gt; 300000" style="rhombus;whiteSpace=wrap;html=1;" parent="1" vertex="1">
          <mxGeometry x="425" y="760" width="147" height="80" as="geometry" />
        </mxCell>
        <mxCell id="xwLJoUd6dYJSsGpiWZFa-58" style="edgeStyle=orthogonalEdgeStyle;rounded=0;orthogonalLoop=1;jettySize=auto;html=1;exitX=0.5;exitY=1;exitDx=0;exitDy=0;" parent="1" target="xwLJoUd6dYJSsGpiWZFa-61" edge="1">
          <mxGeometry relative="1" as="geometry">
            <mxPoint x="500" y="840" as="sourcePoint" />
          </mxGeometry>
        </mxCell>
        <mxCell id="xwLJoUd6dYJSsGpiWZFa-146" style="edgeStyle=orthogonalEdgeStyle;rounded=0;orthogonalLoop=1;jettySize=auto;html=1;exitX=1;exitY=0.5;exitDx=0;exitDy=0;" parent="1" source="xwLJoUd6dYJSsGpiWZFa-59" target="xwLJoUd6dYJSsGpiWZFa-140" edge="1">
          <mxGeometry relative="1" as="geometry">
            <Array as="points">
              <mxPoint x="790" y="920" />
              <mxPoint x="790" y="1310" />
            </Array>
          </mxGeometry>
        </mxCell>
        <mxCell id="xwLJoUd6dYJSsGpiWZFa-59" value="Dapat Diskon 12%" style="rounded=0;whiteSpace=wrap;html=1;" parent="1" vertex="1">
          <mxGeometry x="625" y="890" width="120" height="60" as="geometry" />
        </mxCell>
        <mxCell id="xwLJoUd6dYJSsGpiWZFa-60" style="edgeStyle=orthogonalEdgeStyle;rounded=0;orthogonalLoop=1;jettySize=auto;html=1;exitX=1;exitY=0.5;exitDx=0;exitDy=0;" parent="1" source="xwLJoUd6dYJSsGpiWZFa-61" target="xwLJoUd6dYJSsGpiWZFa-59" edge="1">
          <mxGeometry relative="1" as="geometry" />
        </mxCell>
        <mxCell id="xwLJoUd6dYJSsGpiWZFa-61" value="&amp;gt; 200000 dan&lt;div&gt;&amp;nbsp;&amp;lt; 300000&lt;/div&gt;" style="rhombus;whiteSpace=wrap;html=1;" parent="1" vertex="1">
          <mxGeometry x="426.5" y="880" width="147" height="80" as="geometry" />
        </mxCell>
        <mxCell id="xwLJoUd6dYJSsGpiWZFa-62" style="edgeStyle=orthogonalEdgeStyle;rounded=0;orthogonalLoop=1;jettySize=auto;html=1;exitX=0.5;exitY=1;exitDx=0;exitDy=0;" parent="1" target="xwLJoUd6dYJSsGpiWZFa-65" edge="1">
          <mxGeometry relative="1" as="geometry">
            <mxPoint x="500" y="960" as="sourcePoint" />
          </mxGeometry>
        </mxCell>
        <mxCell id="xwLJoUd6dYJSsGpiWZFa-147" style="edgeStyle=orthogonalEdgeStyle;rounded=0;orthogonalLoop=1;jettySize=auto;html=1;exitX=1;exitY=0.5;exitDx=0;exitDy=0;" parent="1" source="xwLJoUd6dYJSsGpiWZFa-63" target="xwLJoUd6dYJSsGpiWZFa-140" edge="1">
          <mxGeometry relative="1" as="geometry">
            <Array as="points">
              <mxPoint x="790" y="1040" />
              <mxPoint x="790" y="1310" />
            </Array>
          </mxGeometry>
        </mxCell>
        <mxCell id="xwLJoUd6dYJSsGpiWZFa-63" value="Bonus Poster&lt;div&gt;Ekslusif&lt;/div&gt;" style="rounded=0;whiteSpace=wrap;html=1;" parent="1" vertex="1">
          <mxGeometry x="625" y="1010" width="120" height="60" as="geometry" />
        </mxCell>
        <mxCell id="xwLJoUd6dYJSsGpiWZFa-64" style="edgeStyle=orthogonalEdgeStyle;rounded=0;orthogonalLoop=1;jettySize=auto;html=1;exitX=1;exitY=0.5;exitDx=0;exitDy=0;" parent="1" source="xwLJoUd6dYJSsGpiWZFa-65" target="xwLJoUd6dYJSsGpiWZFa-63" edge="1">
          <mxGeometry relative="1" as="geometry" />
        </mxCell>
        <mxCell id="xwLJoUd6dYJSsGpiWZFa-121" style="edgeStyle=orthogonalEdgeStyle;rounded=0;orthogonalLoop=1;jettySize=auto;html=1;exitX=0.5;exitY=1;exitDx=0;exitDy=0;" parent="1" source="xwLJoUd6dYJSsGpiWZFa-65" target="xwLJoUd6dYJSsGpiWZFa-120" edge="1">
          <mxGeometry relative="1" as="geometry" />
        </mxCell>
        <mxCell id="xwLJoUd6dYJSsGpiWZFa-65" value="&amp;gt; 150000 dan&lt;div&gt;&amp;lt; 200000&lt;/div&gt;" style="rhombus;whiteSpace=wrap;html=1;" parent="1" vertex="1">
          <mxGeometry x="426.5" y="1000" width="147" height="80" as="geometry" />
        </mxCell>
        <mxCell id="xwLJoUd6dYJSsGpiWZFa-80" value="True" style="text;html=1;align=center;verticalAlign=middle;resizable=0;points=[];autosize=1;strokeColor=none;fillColor=none;" parent="1" vertex="1">
          <mxGeometry x="95" y="620" width="50" height="30" as="geometry" />
        </mxCell>
        <mxCell id="xwLJoUd6dYJSsGpiWZFa-81" value="True" style="text;html=1;align=center;verticalAlign=middle;resizable=0;points=[];autosize=1;strokeColor=none;fillColor=none;" parent="1" vertex="1">
          <mxGeometry x="496.5" y="620" width="50" height="30" as="geometry" />
        </mxCell>
        <mxCell id="xwLJoUd6dYJSsGpiWZFa-83" value="False" style="text;html=1;align=center;verticalAlign=middle;resizable=0;points=[];autosize=1;strokeColor=none;fillColor=none;" parent="1" vertex="1">
          <mxGeometry x="95" y="840" width="50" height="30" as="geometry" />
        </mxCell>
        <mxCell id="xwLJoUd6dYJSsGpiWZFa-84" value="False" style="text;html=1;align=center;verticalAlign=middle;resizable=0;points=[];autosize=1;strokeColor=none;fillColor=none;" parent="1" vertex="1">
          <mxGeometry x="95" y="960" width="50" height="30" as="geometry" />
        </mxCell>
        <mxCell id="xwLJoUd6dYJSsGpiWZFa-89" value="False" style="text;html=1;align=center;verticalAlign=middle;resizable=0;points=[];autosize=1;strokeColor=none;fillColor=none;" parent="1" vertex="1">
          <mxGeometry x="496.5" y="840" width="50" height="30" as="geometry" />
        </mxCell>
        <mxCell id="xwLJoUd6dYJSsGpiWZFa-90" value="False" style="text;html=1;align=center;verticalAlign=middle;resizable=0;points=[];autosize=1;strokeColor=none;fillColor=none;" parent="1" vertex="1">
          <mxGeometry x="496.5" y="960" width="50" height="30" as="geometry" />
        </mxCell>
        <mxCell id="xwLJoUd6dYJSsGpiWZFa-93" value="True" style="text;html=1;align=center;verticalAlign=middle;resizable=0;points=[];autosize=1;strokeColor=none;fillColor=none;" parent="1" vertex="1">
          <mxGeometry x="160" y="770" width="50" height="30" as="geometry" />
        </mxCell>
        <mxCell id="xwLJoUd6dYJSsGpiWZFa-94" value="True" style="text;html=1;align=center;verticalAlign=middle;resizable=0;points=[];autosize=1;strokeColor=none;fillColor=none;" parent="1" vertex="1">
          <mxGeometry x="160" y="1010" width="50" height="30" as="geometry" />
        </mxCell>
        <mxCell id="xwLJoUd6dYJSsGpiWZFa-99" value="True" style="text;html=1;align=center;verticalAlign=middle;resizable=0;points=[];autosize=1;strokeColor=none;fillColor=none;" parent="1" vertex="1">
          <mxGeometry x="160" y="890" width="50" height="30" as="geometry" />
        </mxCell>
        <mxCell id="xwLJoUd6dYJSsGpiWZFa-100" value="True" style="text;html=1;align=center;verticalAlign=middle;resizable=0;points=[];autosize=1;strokeColor=none;fillColor=none;" parent="1" vertex="1">
          <mxGeometry x="572" y="770" width="50" height="30" as="geometry" />
        </mxCell>
        <mxCell id="xwLJoUd6dYJSsGpiWZFa-101" value="True" style="text;html=1;align=center;verticalAlign=middle;resizable=0;points=[];autosize=1;strokeColor=none;fillColor=none;" parent="1" vertex="1">
          <mxGeometry x="572" y="890" width="50" height="30" as="geometry" />
        </mxCell>
        <mxCell id="xwLJoUd6dYJSsGpiWZFa-102" value="True" style="text;html=1;align=center;verticalAlign=middle;resizable=0;points=[];autosize=1;strokeColor=none;fillColor=none;" parent="1" vertex="1">
          <mxGeometry x="572" y="1010" width="50" height="30" as="geometry" />
        </mxCell>
        <mxCell id="xwLJoUd6dYJSsGpiWZFa-144" style="edgeStyle=orthogonalEdgeStyle;rounded=0;orthogonalLoop=1;jettySize=auto;html=1;exitX=0.5;exitY=1;exitDx=0;exitDy=0;" parent="1" source="xwLJoUd6dYJSsGpiWZFa-116" target="xwLJoUd6dYJSsGpiWZFa-140" edge="1">
          <mxGeometry relative="1" as="geometry" />
        </mxCell>
        <mxCell id="xwLJoUd6dYJSsGpiWZFa-116" value="Tidak Dapat&lt;div&gt;&amp;nbsp;Diskon&lt;/div&gt;" style="shape=parallelogram;perimeter=parallelogramPerimeter;whiteSpace=wrap;html=1;fixedSize=1;" parent="1" vertex="1">
          <mxGeometry x="36.5" y="1120" width="120" height="60" as="geometry" />
        </mxCell>
        <mxCell id="xwLJoUd6dYJSsGpiWZFa-120" value="Tidak Dapat&lt;div&gt;&amp;nbsp;Diskon&lt;/div&gt;" style="shape=parallelogram;perimeter=parallelogramPerimeter;whiteSpace=wrap;html=1;fixedSize=1;" parent="1" vertex="1">
          <mxGeometry x="440" y="1120" width="120" height="60" as="geometry" />
        </mxCell>
        <mxCell id="xwLJoUd6dYJSsGpiWZFa-128" value="" style="endArrow=classic;html=1;rounded=0;" parent="1" edge="1">
          <mxGeometry width="50" height="50" relative="1" as="geometry">
            <mxPoint x="100" y="1170" as="sourcePoint" />
            <mxPoint x="180" y="1170" as="targetPoint" />
          </mxGeometry>
        </mxCell>
        <mxCell id="xwLJoUd6dYJSsGpiWZFa-129" value="" style="endArrow=classic;html=1;rounded=0;" parent="1" edge="1">
          <mxGeometry width="50" height="50" relative="1" as="geometry">
            <mxPoint x="500" y="1170" as="sourcePoint" />
            <mxPoint x="580" y="1170" as="targetPoint" />
          </mxGeometry>
        </mxCell>
        <mxCell id="xwLJoUd6dYJSsGpiWZFa-154" style="edgeStyle=orthogonalEdgeStyle;rounded=0;orthogonalLoop=1;jettySize=auto;html=1;exitX=0.5;exitY=1;exitDx=0;exitDy=0;" parent="1" source="xwLJoUd6dYJSsGpiWZFa-140" target="xwLJoUd6dYJSsGpiWZFa-153" edge="1">
          <mxGeometry relative="1" as="geometry" />
        </mxCell>
        <mxCell id="xwLJoUd6dYJSsGpiWZFa-140" value="Terima Kasih Telah Menggunakan XXO" style="shape=parallelogram;perimeter=parallelogramPerimeter;whiteSpace=wrap;html=1;fixedSize=1;" parent="1" vertex="1">
          <mxGeometry x="24.75" y="1280" width="143.5" height="60" as="geometry" />
        </mxCell>
        <mxCell id="xwLJoUd6dYJSsGpiWZFa-153" value="End" style="ellipse;whiteSpace=wrap;html=1;" parent="1" vertex="1">
          <mxGeometry x="36.5" y="1390" width="120" height="80" as="geometry" />
        </mxCell>
        <mxCell id="G7GfUiHUozjWx32VzTv3-1" value="" style="verticalLabelPosition=bottom;verticalAlign=top;html=1;shape=offPageConnector;rounded=0;size=0.5;" parent="1" vertex="1">
          <mxGeometry x="655" y="550" width="60" height="60" as="geometry" />
        </mxCell>
        <mxCell id="G7GfUiHUozjWx32VzTv3-3" value="1" style="text;html=1;align=center;verticalAlign=middle;resizable=0;points=[];autosize=1;strokeColor=none;fillColor=none;" parent="1" vertex="1">
          <mxGeometry x="670" y="560" width="30" height="30" as="geometry" />
        </mxCell>
        <mxCell id="G7GfUiHUozjWx32VzTv3-20" style="edgeStyle=orthogonalEdgeStyle;rounded=0;orthogonalLoop=1;jettySize=auto;html=1;exitX=1;exitY=0.5;exitDx=0;exitDy=0;" parent="1" source="G7GfUiHUozjWx32VzTv3-19" target="xwLJoUd6dYJSsGpiWZFa-140" edge="1">
          <mxGeometry relative="1" as="geometry" />
        </mxCell>
        <mxCell id="G7GfUiHUozjWx32VzTv3-19" value="" style="verticalLabelPosition=bottom;verticalAlign=top;html=1;shape=offPageConnector;rounded=0;size=0.5;" parent="1" vertex="1">
          <mxGeometry x="-90" y="1280" width="60" height="60" as="geometry" />
        </mxCell>
        <mxCell id="G7GfUiHUozjWx32VzTv3-21" value="2" style="text;html=1;align=center;verticalAlign=middle;resizable=0;points=[];autosize=1;strokeColor=none;fillColor=none;" parent="1" vertex="1">
          <mxGeometry x="-75" y="1290" width="30" height="30" as="geometry" />
        </mxCell>
        <mxCell id="XllvsN_Yxy8EPLdApt6y-1" style="edgeStyle=orthogonalEdgeStyle;rounded=0;orthogonalLoop=1;jettySize=auto;html=1;exitX=0.5;exitY=1;exitDx=0;exitDy=0;" edge="1" parent="1" source="XllvsN_Yxy8EPLdApt6y-3" target="XllvsN_Yxy8EPLdApt6y-4">
          <mxGeometry relative="1" as="geometry" />
        </mxCell>
        <mxCell id="XllvsN_Yxy8EPLdApt6y-2" style="edgeStyle=orthogonalEdgeStyle;rounded=0;orthogonalLoop=1;jettySize=auto;html=1;exitX=1;exitY=0.5;exitDx=0;exitDy=0;" edge="1" parent="1" source="XllvsN_Yxy8EPLdApt6y-3" target="XllvsN_Yxy8EPLdApt6y-31">
          <mxGeometry relative="1" as="geometry" />
        </mxCell>
        <mxCell id="XllvsN_Yxy8EPLdApt6y-3" value="Tiket_VVIP" style="rhombus;whiteSpace=wrap;html=1;" vertex="1" parent="1">
          <mxGeometry x="990" width="147" height="80" as="geometry" />
        </mxCell>
        <mxCell id="XllvsN_Yxy8EPLdApt6y-4" value="Jumlah_Tiket * Harga_VVIP" style="rounded=0;whiteSpace=wrap;html=1;" vertex="1" parent="1">
          <mxGeometry x="1003.5" y="120" width="120" height="60" as="geometry" />
        </mxCell>
        <mxCell id="XllvsN_Yxy8EPLdApt6y-5" style="edgeStyle=orthogonalEdgeStyle;rounded=0;orthogonalLoop=1;jettySize=auto;html=1;exitX=0.5;exitY=1;exitDx=0;exitDy=0;" edge="1" parent="1" target="XllvsN_Yxy8EPLdApt6y-9">
          <mxGeometry relative="1" as="geometry">
            <mxPoint x="1063.5" y="180" as="sourcePoint" />
          </mxGeometry>
        </mxCell>
        <mxCell id="XllvsN_Yxy8EPLdApt6y-6" style="edgeStyle=orthogonalEdgeStyle;rounded=0;orthogonalLoop=1;jettySize=auto;html=1;exitX=1;exitY=0.5;exitDx=0;exitDy=0;" edge="1" parent="1" source="XllvsN_Yxy8EPLdApt6y-7" target="XllvsN_Yxy8EPLdApt6y-45">
          <mxGeometry relative="1" as="geometry">
            <Array as="points">
              <mxPoint x="1360" y="260" />
              <mxPoint x="1360" y="730" />
            </Array>
          </mxGeometry>
        </mxCell>
        <mxCell id="XllvsN_Yxy8EPLdApt6y-7" value="Dapat Diskon 12%" style="rounded=0;whiteSpace=wrap;html=1;" vertex="1" parent="1">
          <mxGeometry x="1188.5" y="230" width="120" height="60" as="geometry" />
        </mxCell>
        <mxCell id="XllvsN_Yxy8EPLdApt6y-8" style="edgeStyle=orthogonalEdgeStyle;rounded=0;orthogonalLoop=1;jettySize=auto;html=1;exitX=1;exitY=0.5;exitDx=0;exitDy=0;" edge="1" parent="1" source="XllvsN_Yxy8EPLdApt6y-9" target="XllvsN_Yxy8EPLdApt6y-7">
          <mxGeometry relative="1" as="geometry" />
        </mxCell>
        <mxCell id="XllvsN_Yxy8EPLdApt6y-9" value="&amp;gt; 300000" style="rhombus;whiteSpace=wrap;html=1;" vertex="1" parent="1">
          <mxGeometry x="990" y="220" width="147" height="80" as="geometry" />
        </mxCell>
        <mxCell id="XllvsN_Yxy8EPLdApt6y-10" style="edgeStyle=orthogonalEdgeStyle;rounded=0;orthogonalLoop=1;jettySize=auto;html=1;exitX=0.5;exitY=1;exitDx=0;exitDy=0;" edge="1" parent="1" target="XllvsN_Yxy8EPLdApt6y-14">
          <mxGeometry relative="1" as="geometry">
            <mxPoint x="1065" y="300" as="sourcePoint" />
          </mxGeometry>
        </mxCell>
        <mxCell id="XllvsN_Yxy8EPLdApt6y-11" style="edgeStyle=orthogonalEdgeStyle;rounded=0;orthogonalLoop=1;jettySize=auto;html=1;exitX=1;exitY=0.5;exitDx=0;exitDy=0;" edge="1" parent="1" source="XllvsN_Yxy8EPLdApt6y-12" target="XllvsN_Yxy8EPLdApt6y-45">
          <mxGeometry relative="1" as="geometry">
            <Array as="points">
              <mxPoint x="1360" y="380" />
              <mxPoint x="1360" y="730" />
            </Array>
          </mxGeometry>
        </mxCell>
        <mxCell id="XllvsN_Yxy8EPLdApt6y-12" value="Dapat Diskon 12%" style="rounded=0;whiteSpace=wrap;html=1;" vertex="1" parent="1">
          <mxGeometry x="1190" y="350" width="120" height="60" as="geometry" />
        </mxCell>
        <mxCell id="XllvsN_Yxy8EPLdApt6y-13" style="edgeStyle=orthogonalEdgeStyle;rounded=0;orthogonalLoop=1;jettySize=auto;html=1;exitX=1;exitY=0.5;exitDx=0;exitDy=0;" edge="1" parent="1" source="XllvsN_Yxy8EPLdApt6y-14" target="XllvsN_Yxy8EPLdApt6y-12">
          <mxGeometry relative="1" as="geometry" />
        </mxCell>
        <mxCell id="XllvsN_Yxy8EPLdApt6y-14" value="&amp;gt; 200000 dan&lt;div&gt;&amp;nbsp;&amp;lt; 300000&lt;/div&gt;" style="rhombus;whiteSpace=wrap;html=1;" vertex="1" parent="1">
          <mxGeometry x="991.5" y="340" width="147" height="80" as="geometry" />
        </mxCell>
        <mxCell id="XllvsN_Yxy8EPLdApt6y-15" style="edgeStyle=orthogonalEdgeStyle;rounded=0;orthogonalLoop=1;jettySize=auto;html=1;exitX=0.5;exitY=1;exitDx=0;exitDy=0;" edge="1" parent="1" target="XllvsN_Yxy8EPLdApt6y-20">
          <mxGeometry relative="1" as="geometry">
            <mxPoint x="1065" y="420" as="sourcePoint" />
          </mxGeometry>
        </mxCell>
        <mxCell id="XllvsN_Yxy8EPLdApt6y-16" style="edgeStyle=orthogonalEdgeStyle;rounded=0;orthogonalLoop=1;jettySize=auto;html=1;exitX=1;exitY=0.5;exitDx=0;exitDy=0;" edge="1" parent="1" source="XllvsN_Yxy8EPLdApt6y-17" target="XllvsN_Yxy8EPLdApt6y-45">
          <mxGeometry relative="1" as="geometry">
            <Array as="points">
              <mxPoint x="1360" y="500" />
              <mxPoint x="1360" y="730" />
            </Array>
          </mxGeometry>
        </mxCell>
        <mxCell id="XllvsN_Yxy8EPLdApt6y-17" value="Bonus Poster&lt;div&gt;Ekslusif&lt;/div&gt;" style="rounded=0;whiteSpace=wrap;html=1;" vertex="1" parent="1">
          <mxGeometry x="1190" y="470" width="120" height="60" as="geometry" />
        </mxCell>
        <mxCell id="XllvsN_Yxy8EPLdApt6y-18" style="edgeStyle=orthogonalEdgeStyle;rounded=0;orthogonalLoop=1;jettySize=auto;html=1;exitX=1;exitY=0.5;exitDx=0;exitDy=0;" edge="1" parent="1" source="XllvsN_Yxy8EPLdApt6y-20" target="XllvsN_Yxy8EPLdApt6y-17">
          <mxGeometry relative="1" as="geometry" />
        </mxCell>
        <mxCell id="XllvsN_Yxy8EPLdApt6y-19" style="edgeStyle=orthogonalEdgeStyle;rounded=0;orthogonalLoop=1;jettySize=auto;html=1;exitX=0.5;exitY=1;exitDx=0;exitDy=0;" edge="1" parent="1" source="XllvsN_Yxy8EPLdApt6y-20" target="XllvsN_Yxy8EPLdApt6y-28">
          <mxGeometry relative="1" as="geometry" />
        </mxCell>
        <mxCell id="XllvsN_Yxy8EPLdApt6y-20" value="&amp;gt; 150000 dan&lt;div&gt;&amp;lt; 200000&lt;/div&gt;" style="rhombus;whiteSpace=wrap;html=1;" vertex="1" parent="1">
          <mxGeometry x="991.5" y="460" width="147" height="80" as="geometry" />
        </mxCell>
        <mxCell id="XllvsN_Yxy8EPLdApt6y-21" value="True" style="text;html=1;align=center;verticalAlign=middle;resizable=0;points=[];autosize=1;strokeColor=none;fillColor=none;" vertex="1" parent="1">
          <mxGeometry x="1445" y="80" width="50" height="30" as="geometry" />
        </mxCell>
        <mxCell id="XllvsN_Yxy8EPLdApt6y-22" value="False" style="text;html=1;align=center;verticalAlign=middle;resizable=0;points=[];autosize=1;strokeColor=none;fillColor=none;" vertex="1" parent="1">
          <mxGeometry x="1063.5" y="300" width="50" height="30" as="geometry" />
        </mxCell>
        <mxCell id="XllvsN_Yxy8EPLdApt6y-23" value="False" style="text;html=1;align=center;verticalAlign=middle;resizable=0;points=[];autosize=1;strokeColor=none;fillColor=none;" vertex="1" parent="1">
          <mxGeometry x="1063.5" y="420" width="50" height="30" as="geometry" />
        </mxCell>
        <mxCell id="XllvsN_Yxy8EPLdApt6y-24" value="True" style="text;html=1;align=center;verticalAlign=middle;resizable=0;points=[];autosize=1;strokeColor=none;fillColor=none;" vertex="1" parent="1">
          <mxGeometry x="1137" y="230" width="50" height="30" as="geometry" />
        </mxCell>
        <mxCell id="XllvsN_Yxy8EPLdApt6y-25" value="True" style="text;html=1;align=center;verticalAlign=middle;resizable=0;points=[];autosize=1;strokeColor=none;fillColor=none;" vertex="1" parent="1">
          <mxGeometry x="1137" y="470" width="50" height="30" as="geometry" />
        </mxCell>
        <mxCell id="XllvsN_Yxy8EPLdApt6y-26" value="True" style="text;html=1;align=center;verticalAlign=middle;resizable=0;points=[];autosize=1;strokeColor=none;fillColor=none;" vertex="1" parent="1">
          <mxGeometry x="1137" y="350" width="50" height="30" as="geometry" />
        </mxCell>
        <mxCell id="XllvsN_Yxy8EPLdApt6y-27" style="edgeStyle=orthogonalEdgeStyle;rounded=0;orthogonalLoop=1;jettySize=auto;html=1;exitX=0.5;exitY=1;exitDx=0;exitDy=0;" edge="1" parent="1" source="XllvsN_Yxy8EPLdApt6y-28" target="XllvsN_Yxy8EPLdApt6y-45">
          <mxGeometry relative="1" as="geometry" />
        </mxCell>
        <mxCell id="XllvsN_Yxy8EPLdApt6y-28" value="Tidak Dapat&lt;div&gt;&amp;nbsp;Diskon&lt;/div&gt;" style="shape=parallelogram;perimeter=parallelogramPerimeter;whiteSpace=wrap;html=1;fixedSize=1;" vertex="1" parent="1">
          <mxGeometry x="1005" y="580" width="120" height="60" as="geometry" />
        </mxCell>
        <mxCell id="XllvsN_Yxy8EPLdApt6y-29" style="edgeStyle=orthogonalEdgeStyle;rounded=0;orthogonalLoop=1;jettySize=auto;html=1;exitX=0.5;exitY=1;exitDx=0;exitDy=0;" edge="1" parent="1" source="XllvsN_Yxy8EPLdApt6y-31" target="XllvsN_Yxy8EPLdApt6y-34">
          <mxGeometry relative="1" as="geometry" />
        </mxCell>
        <mxCell id="XllvsN_Yxy8EPLdApt6y-30" style="edgeStyle=orthogonalEdgeStyle;rounded=0;orthogonalLoop=1;jettySize=auto;html=1;" edge="1" parent="1" source="XllvsN_Yxy8EPLdApt6y-31" target="XllvsN_Yxy8EPLdApt6y-38">
          <mxGeometry relative="1" as="geometry" />
        </mxCell>
        <mxCell id="XllvsN_Yxy8EPLdApt6y-31" value="Keluar" style="rhombus;whiteSpace=wrap;html=1;" vertex="1" parent="1">
          <mxGeometry x="1371" width="147" height="80" as="geometry" />
        </mxCell>
        <mxCell id="XllvsN_Yxy8EPLdApt6y-32" value="False" style="text;html=1;align=center;verticalAlign=middle;resizable=0;points=[];autosize=1;strokeColor=none;fillColor=none;" vertex="1" parent="1">
          <mxGeometry x="1230" y="10" width="50" height="30" as="geometry" />
        </mxCell>
        <mxCell id="XllvsN_Yxy8EPLdApt6y-33" style="edgeStyle=orthogonalEdgeStyle;rounded=0;orthogonalLoop=1;jettySize=auto;html=1;exitX=0.5;exitY=1;exitDx=0;exitDy=0;" edge="1" parent="1" source="XllvsN_Yxy8EPLdApt6y-34" target="XllvsN_Yxy8EPLdApt6y-45">
          <mxGeometry relative="1" as="geometry">
            <Array as="points">
              <mxPoint x="1445" y="730" />
            </Array>
          </mxGeometry>
        </mxCell>
        <mxCell id="XllvsN_Yxy8EPLdApt6y-34" value="Terima Kasih" style="shape=parallelogram;perimeter=parallelogramPerimeter;whiteSpace=wrap;html=1;fixedSize=1;" vertex="1" parent="1">
          <mxGeometry x="1385" y="120" width="120" height="60" as="geometry" />
        </mxCell>
        <mxCell id="XllvsN_Yxy8EPLdApt6y-35" value="" style="endArrow=classic;html=1;rounded=0;" edge="1" parent="1">
          <mxGeometry width="50" height="50" relative="1" as="geometry">
            <mxPoint x="1063.5" y="630" as="sourcePoint" />
            <mxPoint x="1143.5" y="630" as="targetPoint" />
          </mxGeometry>
        </mxCell>
        <mxCell id="XllvsN_Yxy8EPLdApt6y-36" value="" style="endArrow=classic;html=1;rounded=0;" edge="1" parent="1">
          <mxGeometry width="50" height="50" relative="1" as="geometry">
            <mxPoint x="1450" y="170" as="sourcePoint" />
            <mxPoint x="1530" y="170" as="targetPoint" />
          </mxGeometry>
        </mxCell>
        <mxCell id="XllvsN_Yxy8EPLdApt6y-37" style="edgeStyle=orthogonalEdgeStyle;rounded=0;orthogonalLoop=1;jettySize=auto;html=1;exitX=0.5;exitY=1;exitDx=0;exitDy=0;" edge="1" parent="1" source="XllvsN_Yxy8EPLdApt6y-38" target="XllvsN_Yxy8EPLdApt6y-45">
          <mxGeometry relative="1" as="geometry">
            <Array as="points">
              <mxPoint x="1630" y="730" />
            </Array>
          </mxGeometry>
        </mxCell>
        <mxCell id="XllvsN_Yxy8EPLdApt6y-38" value="Ulangi" style="shape=parallelogram;perimeter=parallelogramPerimeter;whiteSpace=wrap;html=1;fixedSize=1;" vertex="1" parent="1">
          <mxGeometry x="1570" y="10" width="120" height="60" as="geometry" />
        </mxCell>
        <mxCell id="XllvsN_Yxy8EPLdApt6y-39" value="" style="endArrow=classic;html=1;rounded=0;" edge="1" parent="1">
          <mxGeometry width="50" height="50" relative="1" as="geometry">
            <mxPoint x="1635" y="60" as="sourcePoint" />
            <mxPoint x="1715" y="60" as="targetPoint" />
          </mxGeometry>
        </mxCell>
        <mxCell id="XllvsN_Yxy8EPLdApt6y-40" value="False" style="text;html=1;align=center;verticalAlign=middle;resizable=0;points=[];autosize=1;strokeColor=none;fillColor=none;" vertex="1" parent="1">
          <mxGeometry x="1518" y="10" width="50" height="30" as="geometry" />
        </mxCell>
        <mxCell id="XllvsN_Yxy8EPLdApt6y-41" style="edgeStyle=orthogonalEdgeStyle;rounded=0;orthogonalLoop=1;jettySize=auto;html=1;exitX=1;exitY=0.5;exitDx=0;exitDy=0;" edge="1" parent="1" source="XllvsN_Yxy8EPLdApt6y-42" target="XllvsN_Yxy8EPLdApt6y-3">
          <mxGeometry relative="1" as="geometry" />
        </mxCell>
        <mxCell id="XllvsN_Yxy8EPLdApt6y-42" value="" style="verticalLabelPosition=bottom;verticalAlign=top;html=1;shape=offPageConnector;rounded=0;size=0.5;" vertex="1" parent="1">
          <mxGeometry x="850" y="10" width="60" height="60" as="geometry" />
        </mxCell>
        <mxCell id="XllvsN_Yxy8EPLdApt6y-43" value="1" style="text;html=1;align=center;verticalAlign=middle;resizable=0;points=[];autosize=1;strokeColor=none;fillColor=none;" vertex="1" parent="1">
          <mxGeometry x="865" y="20" width="30" height="30" as="geometry" />
        </mxCell>
        <mxCell id="XllvsN_Yxy8EPLdApt6y-44" value="False" style="text;html=1;align=center;verticalAlign=middle;resizable=0;points=[];autosize=1;strokeColor=none;fillColor=none;" vertex="1" parent="1">
          <mxGeometry x="920" y="10" width="50" height="30" as="geometry" />
        </mxCell>
        <mxCell id="XllvsN_Yxy8EPLdApt6y-45" value="" style="verticalLabelPosition=bottom;verticalAlign=top;html=1;shape=offPageConnector;rounded=0;size=0.5;" vertex="1" parent="1">
          <mxGeometry x="1035" y="700" width="60" height="60" as="geometry" />
        </mxCell>
        <mxCell id="XllvsN_Yxy8EPLdApt6y-46" value="2" style="text;html=1;align=center;verticalAlign=middle;resizable=0;points=[];autosize=1;strokeColor=none;fillColor=none;" vertex="1" parent="1">
          <mxGeometry x="1050" y="710" width="30" height="30" as="geometry" />
        </mxCell>
      </root>
    </mxGraphModel>
  </diagram>
</mxfile>
